<svg width="83" height="83" viewBox="0 0 83 83" fill="none" xmlns="http://www.w3.org/2000/svg">
<g clip-path="url(#clip0_0_9644)">
<path d="M48.2774 51.6953C51.4804 50.8739 54.2628 49.0673 56.3238 46.4708C58.8508 43.2873 59.9711 39.3119 59.4784 35.2768C58.9856 31.2426 56.9392 27.6508 53.7188 25.1695C50.5986 22.764 46.7089 21.6946 42.7661 22.1584C38.8235 22.6221 35.2877 24.5648 32.8103 27.6283C30.6864 30.2547 29.5281 33.4226 29.4604 36.7897C29.3505 42.2557 27.4669 47.5628 24.1564 51.7334L20.5341 56.2968C18.9273 58.3211 19.2669 61.275 21.2911 62.8818L24.7058 65.5922C26.73 67.199 29.684 66.8593 31.2907 64.8351L34.9128 60.272C38.26 56.0554 42.8714 53.0815 48.2774 51.6953ZM31.3916 36.8286C31.4506 33.8942 32.4605 31.1329 34.3121 28.843C38.7607 23.3421 46.9373 22.3804 52.5393 26.6993C55.348 28.868 57.1313 31.9942 57.5608 35.5111C57.9905 39.0289 57.0138 42.4946 54.8108 45.27C53.0141 47.5335 50.5889 49.1084 47.7975 49.8243C42.1013 51.285 37.2043 54.377 33.6125 58.776L25.8929 52.6484C29.3258 48.1936 31.2758 42.5908 31.3916 36.8286ZM22.454 56.9851L22.9401 56.3726L29.9679 63.3948L29.7779 63.6343C29.6778 63.7604 29.5672 63.8728 29.451 63.9764L22.454 56.9851ZM24.1489 54.8498L24.694 54.163L32.4249 60.2996L31.1767 61.872L24.1489 54.8498ZM22.492 61.3689C21.6793 60.7239 21.3295 59.7096 21.4896 58.752L27.4098 64.6675C26.8789 64.6277 26.3542 64.4345 25.9068 64.0793L22.4921 61.3688L22.492 61.3689Z" fill="black"/>
<path d="M36.1398 32.3041C36.395 31.8613 36.6897 31.4323 37.0157 31.0292C37.3512 30.6145 37.2869 30.0064 36.8721 29.6709C36.4601 29.3379 35.8493 29.3998 35.5139 29.8145C35.1243 30.2962 34.7718 30.8092 34.4662 31.3395C34.2242 31.7593 34.3329 32.2851 34.7015 32.5777C34.7386 32.6071 34.7784 32.6343 34.8207 32.6586C35.2828 32.9249 35.8734 32.7662 36.1398 32.3041Z" fill="black"/>
<path d="M31.4707 47.3282C31.549 47.3904 31.6385 47.4413 31.7373 47.4779C32.2378 47.6624 32.7932 47.4062 32.9776 46.9059C34.163 43.6909 34.7989 40.3237 34.8677 36.8982C34.8791 36.332 34.9394 35.767 35.0471 35.219C35.1498 34.6956 34.8087 34.188 34.2853 34.0852C33.7619 33.9825 33.2543 34.3236 33.1515 34.847C33.0225 35.5046 32.9501 36.1815 32.9365 36.8594C32.872 40.0696 32.2761 43.2249 31.1653 46.2376C31.0173 46.6391 31.1528 47.0759 31.4707 47.3282Z" fill="black"/>
<path d="M50.4158 46.0035C50.1634 45.5336 49.5777 45.3574 49.1079 45.61C48.4265 45.9763 47.695 46.261 46.9337 46.4561C46.4171 46.5885 46.1056 47.1149 46.2381 47.6316C46.2924 47.8437 46.4133 48.0212 46.5726 48.1476C46.8012 48.3291 47.1091 48.4053 47.4136 48.3271C48.3259 48.0932 49.2035 47.7514 50.0223 47.3114C50.4922 47.059 50.6685 46.4733 50.4158 46.0035Z" fill="black"/>
<path d="M50.5273 29.5399C54.6981 32.8506 55.3978 38.9374 52.0871 43.1083C51.8989 43.3454 51.6983 43.5757 51.491 43.7928C51.1226 44.1786 51.1366 44.7898 51.5223 45.1583C51.5442 45.179 51.5666 45.1987 51.5898 45.2171C51.9764 45.5239 52.5402 45.4909 52.8878 45.1269C53.1356 44.8674 53.3753 44.5924 53.6 44.3092C57.573 39.3041 56.7333 31.9999 51.7282 28.027C51.3104 27.6954 50.7029 27.7652 50.3712 28.183C50.0396 28.6008 50.1095 29.2083 50.5273 29.5399Z" fill="black"/>
<path d="M54.9258 23.9988C55.3436 24.3304 55.9511 24.2606 56.2828 23.8428L59.6454 19.6066C59.977 19.1888 59.9071 18.5813 59.4894 18.2496C59.0716 17.918 58.464 17.9879 58.1324 18.4056L54.7698 22.6419C54.4382 23.0597 54.508 23.6672 54.9258 23.9988Z" fill="black"/>
<path d="M46.0865 19.4187C46.034 19.7727 46.1805 20.1101 46.4419 20.3177C46.5702 20.4195 46.7263 20.4901 46.9 20.5159C47.4276 20.5942 47.9189 20.23 47.9972 19.7024L48.7911 14.3545C48.8694 13.8267 48.5053 13.3356 47.9777 13.2573C47.45 13.179 46.9587 13.5432 46.8804 14.0708L46.0865 19.4187Z" fill="black"/>
<path d="M53.8697 58.528L51.8828 53.4998C51.6868 53.0036 51.1257 52.7604 50.6297 52.9566C50.1336 53.1526 49.8903 53.7136 50.0864 54.2098L52.0733 59.2379C52.1378 59.4013 52.2419 59.5371 52.3703 59.6391C52.6317 59.8466 52.9937 59.9127 53.3265 59.7812C53.8225 59.5852 54.0657 59.0241 53.8697 58.528Z" fill="black"/>
<path d="M34.9673 15.9439L36.9542 20.9721C37.0187 21.1354 37.1228 21.2713 37.2512 21.3732C37.5126 21.5807 37.8747 21.6468 38.2074 21.5153C38.7035 21.3194 38.9468 20.7583 38.7507 20.2622L36.7638 15.234C36.5679 14.7378 36.0068 14.4946 35.5106 14.6907C35.0145 14.8867 34.7713 15.4477 34.9673 15.9439Z" fill="black"/>
<path d="M63.249 50.9499L59.0128 47.5873C58.595 47.2557 57.9875 47.3255 57.6559 47.7433C57.3242 48.1611 57.3941 48.7686 57.8119 49.1002L62.0481 52.4628C62.4659 52.7944 63.0734 52.7246 63.405 52.3068C63.7366 51.889 63.6669 51.2816 63.249 50.9499Z" fill="black"/>
<path d="M31.1814 26.7285C31.513 26.3107 31.4431 25.7031 31.0254 25.3715L26.7891 22.0089C26.3714 21.6773 25.7638 21.7471 25.4322 22.1649C25.1006 22.5827 25.1704 23.1902 25.5882 23.5219L29.8244 26.8845C30.2423 27.2162 30.8498 27.1462 31.1814 26.7285Z" fill="black"/>
<path d="M61.4938 40.6162C61.6221 40.718 61.7781 40.7886 61.9519 40.8144L67.2997 41.6083C67.8273 41.6866 68.3187 41.3225 68.3969 40.7949C68.4752 40.2672 68.111 39.7759 67.5835 39.6976L62.2356 38.9037C61.708 38.8254 61.2167 39.1896 61.1384 39.7172C61.0858 40.0711 61.2325 40.4088 61.4938 40.6162Z" fill="black"/>
<path d="M26.8852 33.6574L21.5373 32.8634C21.0097 32.7851 20.5184 33.1493 20.4401 33.6769C20.3876 34.0308 20.5341 34.3684 20.7955 34.5759C20.9238 34.6777 21.0799 34.7483 21.2536 34.7741L26.6015 35.5681C27.1291 35.6464 27.6204 35.2822 27.6987 34.7546C27.7771 34.227 27.4126 33.7355 26.8852 33.6574Z" fill="black"/>
<path d="M60.1393 31.025C60.2039 31.1884 60.3079 31.3243 60.4363 31.4262C60.6978 31.6337 61.0598 31.6998 61.3925 31.5683L66.4207 29.5814C66.9168 29.3854 67.1599 28.8243 66.964 28.3282C66.7681 27.8322 66.2069 27.5889 65.7108 27.785L60.6826 29.7718C60.1865 29.9678 59.9433 30.529 60.1393 31.025Z" fill="black"/>
</g>
<defs>
<clipPath id="clip0_0_9644">
<rect width="58.7065" height="58.7065" fill="white" transform="translate(36.4985) rotate(38.4415)"/>
</clipPath>
</defs>
</svg>
