<svg width="72" height="72" viewBox="0 0 72 72" fill="none" xmlns="http://www.w3.org/2000/svg">
<g id="light-bulb-svgrepo-com 1" clip-path="url(#clip0_0_7231)">
<g id="Group">
<path id="Vector" d="M41.897 44.8621C44.6767 44.1493 47.0913 42.5815 48.8799 40.3282C51.0729 37.5654 52.0451 34.1155 51.6174 30.6138C51.1898 27.1128 49.4139 23.9958 46.6191 21.8424C43.9114 19.7549 40.5358 18.8269 37.1142 19.2293C33.6927 19.6318 30.6243 21.3177 28.4743 23.9763C26.6312 26.2555 25.6259 29.0047 25.5672 31.9267C25.4718 36.6702 23.8372 41.2758 20.9643 44.8952L17.8208 48.8554C16.4264 50.6121 16.7211 53.1756 18.4778 54.57L21.441 56.9221C23.1977 58.3165 25.7613 58.0217 27.1556 56.2651L30.2989 52.3051C33.2037 48.6459 37.2055 46.0651 41.897 44.8621ZM27.2431 31.9604C27.2943 29.4139 28.1707 27.0176 29.7777 25.0304C33.6382 20.2565 40.734 19.422 45.5956 23.1701C48.033 25.052 49.5806 27.7651 49.9533 30.8171C50.3262 33.8699 49.4787 36.8776 47.5669 39.2861C46.0076 41.2504 43.903 42.6171 41.4805 43.2384C36.5373 44.5061 32.2875 47.1893 29.1705 51.0069L22.4712 45.6892C25.4504 41.8233 27.1427 36.961 27.2431 31.9604ZM19.4869 49.4527L19.9088 48.9212L26.0077 55.0152L25.8427 55.223C25.7559 55.3324 25.6599 55.43 25.5591 55.5199L19.4869 49.4527ZM20.9578 47.5997L21.4309 47.0037L28.1398 52.3291L27.0567 53.6937L20.9578 47.5997ZM19.5199 53.2571C18.8147 52.6973 18.511 51.8171 18.65 50.9861L23.7876 56.1196C23.3269 56.0851 22.8716 55.9174 22.4833 55.6092L19.52 53.257L19.5199 53.2571Z" fill="black"/>
<path id="Vector_2" d="M31.3641 28.0341C31.5856 27.6499 31.8413 27.2776 32.1243 26.9277C32.4154 26.5678 32.3596 26.0401 31.9997 25.749C31.6421 25.46 31.112 25.5137 30.8209 25.8736C30.4829 26.2916 30.177 26.7368 29.9117 27.197C29.7017 27.5614 29.7961 28.0177 30.1159 28.2715C30.1481 28.2971 30.1827 28.3207 30.2194 28.3418C30.6204 28.5728 31.1329 28.4352 31.3641 28.0341Z" fill="black"/>
<path id="Vector_3" d="M27.3123 41.0725C27.3802 41.1264 27.4578 41.1706 27.5437 41.2023C27.978 41.3625 28.4599 41.1402 28.62 40.7059C29.6487 37.9159 30.2006 34.9938 30.2603 32.0211C30.2702 31.5297 30.3225 31.0394 30.4159 30.5639C30.5051 30.1096 30.2091 29.6691 29.7548 29.5799C29.3006 29.4908 28.8601 29.7868 28.7709 30.241C28.659 30.8117 28.5961 31.3991 28.5843 31.9875C28.5284 34.7733 28.0112 37.5115 27.0473 40.126C26.9188 40.4745 27.0364 40.8535 27.3123 41.0725Z" fill="black"/>
<path id="Vector_4" d="M43.7533 39.923C43.5343 39.5152 43.026 39.3623 42.6183 39.5814C42.0269 39.8993 41.3921 40.1464 40.7315 40.3157C40.2831 40.4307 40.0128 40.8874 40.1278 41.3358C40.175 41.5199 40.2798 41.674 40.4181 41.7837C40.6165 41.9412 40.8836 42.0073 41.148 41.9394C41.9396 41.7364 42.7013 41.4398 43.4118 41.058C43.8196 40.8389 43.9726 40.3307 43.7533 39.923Z" fill="black"/>
<path id="Vector_5" d="M43.8497 25.6353C47.4693 28.5084 48.0765 33.7907 45.2034 37.4103C45.04 37.616 44.866 37.8159 44.6861 38.0043C44.3664 38.3391 44.3785 38.8695 44.7133 39.1893C44.7322 39.2073 44.7517 39.2243 44.7718 39.2403C45.1073 39.5066 45.5966 39.478 45.8983 39.1621C46.1133 38.9368 46.3213 38.6982 46.5163 38.4525C49.9641 34.1089 49.2354 27.7702 44.8919 24.3224C44.5293 24.0346 44.0021 24.0952 43.7143 24.4578C43.4265 24.8203 43.4871 25.3475 43.8497 25.6353Z" fill="black"/>
<path id="Vector_6" d="M47.6668 20.8265C48.0294 21.1143 48.5566 21.0537 48.8444 20.6911L51.7626 17.0148C52.0504 16.6523 51.9897 16.125 51.6272 15.8373C51.2646 15.5495 50.7374 15.6101 50.4496 15.9726L47.5315 19.6489C47.2437 20.0115 47.3043 20.5387 47.6668 20.8265Z" fill="black"/>
<path id="Vector_7" d="M39.9962 16.8519C39.9507 17.1592 40.0778 17.452 40.3047 17.6321C40.416 17.7205 40.5514 17.7818 40.7022 17.8041C41.16 17.8721 41.5864 17.556 41.6544 17.0981L42.3434 12.4572C42.4113 11.9991 42.0953 11.5729 41.6374 11.505C41.1795 11.437 40.7532 11.7531 40.6852 12.2109L39.9962 16.8519Z" fill="black"/>
<path id="Vector_8" d="M46.7503 50.7919L45.0261 46.4284C44.856 45.9977 44.369 45.7867 43.9385 45.9569C43.508 46.127 43.2969 46.6139 43.4671 47.0445L45.1913 51.408C45.2473 51.5498 45.3377 51.6677 45.4491 51.7561C45.676 51.9362 45.9901 51.9936 46.2789 51.8795C46.7094 51.7094 46.9204 51.2224 46.7503 50.7919Z" fill="black"/>
<path id="Vector_9" d="M30.3461 13.8365L32.0704 18.2C32.1264 18.3418 32.2167 18.4597 32.3281 18.5482C32.555 18.7282 32.8692 18.7856 33.1579 18.6715C33.5884 18.5014 33.7995 18.0145 33.6294 17.584L31.9051 13.2204C31.7351 12.7898 31.2481 12.5788 30.8176 12.7489C30.3871 12.919 30.176 13.4058 30.3461 13.8365Z" fill="black"/>
<path id="Vector_10" d="M54.8904 44.2154L51.2141 41.2972C50.8515 41.0094 50.3243 41.0701 50.0365 41.4326C49.7487 41.7952 49.8094 42.3224 50.1719 42.6102L53.8482 45.5283C54.2107 45.8161 54.738 45.7555 55.0258 45.3929C55.3136 45.0304 55.253 44.5032 54.8904 44.2154Z" fill="black"/>
<path id="Vector_11" d="M27.0609 23.1957C27.3487 22.8331 27.288 22.3059 26.9255 22.0181L23.2492 19.1C22.8866 18.8122 22.3594 18.8728 22.0716 19.2353C21.7838 19.5979 21.8444 20.1251 22.207 20.4129L25.8833 23.3311C26.2459 23.6189 26.7731 23.5582 27.0609 23.1957Z" fill="black"/>
<path id="Vector_12" d="M53.3664 35.2478C53.4777 35.3362 53.6131 35.3975 53.7639 35.4198L58.4049 36.1088C58.8628 36.1768 59.2891 35.8607 59.3571 35.4028C59.425 34.945 59.1089 34.5185 58.6511 34.4507L54.0101 33.7617C53.5522 33.6937 53.1259 34.0098 53.0579 34.4676C53.0123 34.7747 53.1396 35.0678 53.3664 35.2478Z" fill="black"/>
<path id="Vector_13" d="M23.3327 29.2087L18.6917 28.5197C18.2339 28.4518 17.8075 28.7678 17.7396 29.2257C17.694 29.5328 17.8211 29.8258 18.048 30.0059C18.1593 30.0942 18.2948 30.1555 18.4455 30.1779L23.0865 30.8669C23.5444 30.9348 23.9708 30.6188 24.0387 30.1609C24.1068 29.703 23.7904 29.2766 23.3327 29.2087Z" fill="black"/>
<path id="Vector_14" d="M52.1909 26.9241C52.2469 27.0658 52.3372 27.1838 52.4487 27.2722C52.6756 27.4523 52.9897 27.5096 53.2785 27.3955L57.642 25.6713C58.0725 25.5012 58.2836 25.0142 58.1135 24.5837C57.9435 24.1533 57.4565 23.9421 57.026 24.1123L52.6624 25.8365C52.2319 26.0066 52.0209 26.4936 52.1909 26.9241Z" fill="black"/>
</g>
</g>
<defs>
<clipPath id="clip0_0_7231">
<rect width="50.9468" height="50.9468" fill="white" transform="translate(31.6748) rotate(38.4415)"/>
</clipPath>
</defs>
</svg>
